<?xml version="1.0" encoding="utf-8"?>
<!-- Generator: Adobe Illustrator 21.0.2, SVG Export Plug-In . SVG Version: 6.00 Build 0)  -->
<svg version="1.1" id="图层_1" xmlns="http://www.w3.org/2000/svg" xmlns:xlink="http://www.w3.org/1999/xlink" x="0px" y="0px"
	 viewBox="0 0 16 16" style="enable-background:new 0 0 16 16;" xml:space="preserve">
<style type="text/css">
	.st0{fill:#FF74B9;}
</style>
<title>Group 4 Copy</title>
<desc>Created with Sketch.</desc>
<g id="Group-4-Copy" transform="translate(708.000000, 608.000000)">
	<g id="Group-3">
		<g id="Oval-3">
			<path class="st0" d="M-700-592c-4.4,0-8-3.6-8-8s3.6-8,8-8s8,3.6,8,8S-695.6-592-700-592z M-700-607c-3.9,0-7,3.1-7,7
				c0,3.9,3.1,7,7,7c3.9,0,7-3.1,7-7C-693-603.9-696.1-607-700-607z"/>
		</g>
		<g id="_x3F_">
			<path class="st0" d="M-699.8-605c-1,0-1.8,0.3-2.4,0.9c-0.5,0.6-0.8,1.4-0.8,2.4h1.1c0-0.7,0.2-1.2,0.4-1.6
				c0.4-0.5,0.9-0.7,1.6-0.7c0.6,0,1,0.2,1.4,0.5c0.3,0.3,0.5,0.7,0.5,1.3c0,0.4-0.1,0.8-0.4,1.1c-0.1,0.1-0.3,0.3-0.5,0.5
				c-0.8,0.7-1.2,1.2-1.4,1.6c-0.2,0.4-0.3,0.8-0.3,1.2v0.3h1.1v-0.3c0-0.4,0.1-0.7,0.3-1c0.1-0.3,0.4-0.5,0.6-0.8
				c0.6-0.5,1-0.9,1.1-1.1c0.3-0.5,0.5-1,0.5-1.6c0-0.8-0.3-1.5-0.8-2C-698.2-604.8-698.9-605-699.8-605z M-700-596.5
				c-0.3,0-0.4,0.1-0.6,0.2c-0.2,0.2-0.3,0.4-0.3,0.6c0,0.2,0.1,0.4,0.3,0.6c0.2,0.2,0.3,0.2,0.6,0.2c0.2,0,0.4-0.1,0.6-0.2
				c0.2-0.2,0.2-0.3,0.2-0.6c0-0.2-0.1-0.4-0.2-0.6C-699.6-596.4-699.8-596.5-700-596.5z"/>
		</g>
	</g>
</g>
</svg>
